<?xml version="1.0" encoding="UTF-8"?>
<svg id="Layer_2" data-name="Layer 2" xmlns="http://www.w3.org/2000/svg" viewBox="0 0 224.47 266.78">
  <defs>
    <style>
      .cls-1 {
        fill: #fff;
      }

      .cls-2 {
        fill: #2563eb;
      }
    </style>
  </defs>
  <g id="Layer_1-2" data-name="Layer 1">
    <g>
      <path class="cls-2" d="M224.47,127.35c0,21.77-3.92,40.6-11.75,56.53-7.82,15.91-18.5,29.18-32.04,39.79-13.52,10.62-29.11,18.91-46.76,24.88-17.64,5.96-36.29,9.89-55.91,11.74l-35.03,3.58h-1.2l-25.86,2.79c-5.32.53-9.3-.67-11.94-3.59-2.66-2.91-3.98-7.02-3.98-12.33v-16.54c24.69-2.88,46.98-12.09,64.35-25.58h.01c3-2.34,5.87-4.79,8.56-7.37h0s.04-.05.06-.07l6.62-.59c.96-.1,1.91-.2,2.86-.33,4.77-.56,9.44-1.35,14-2.34.91-.19,1.82-.4,2.72-.61s1.8-.43,2.7-.66c.9-.22,1.79-.46,2.68-.7.72-.19,1.44-.4,2.15-.62.46-.13.92-.27,1.37-.41.58-.17,1.17-.36,1.75-.54.87-.27,1.74-.55,2.6-.85,2.59-.88,5.14-1.83,7.65-2.85.17-.07.34-.14.5-.21.67-.26,1.34-.54,2-.83.57-.24,1.12-.49,1.68-.75.05-.02.1-.05.15-.07.4-.18.79-.36,1.18-.55.66-.3,1.31-.62,1.95-.93.54-.27,1.08-.55,1.61-.83.06-.04.12-.06.18-.1.23-.12.45-.23.67-.36.79-.41,1.55-.84,2.32-1.28.51-.29.98-.58,1.47-.88.15-.09.31-.19.46-.28.46-.28.92-.57,1.38-.87.18-.12.37-.24.56-.36.07-.05.14-.09.21-.14.12-.07.23-.15.34-.22.1-.07.2-.13.29-.2.87-.58,1.72-1.17,2.55-1.78.3-.22.63-.45.95-.7.08-.06.15-.11.22-.17.07-.04.14-.1.21-.15.46-.34.9-.69,1.35-1.06.11-.08.21-.16.3-.24.59-.47,1.16-.95,1.73-1.44.1-.08.2-.17.3-.26.1-.08.19-.16.28-.23.77-.66,1.53-1.35,2.27-2.07.05-.04.12-.09.17-.16.71-.68,1.41-1.37,2.08-2.07.25-.25.49-.51.72-.76.02,0,.03,0,.02-.02.12-.11.24-.24.35-.36.74-.77,1.44-1.56,2.12-2.38.01,0,.01-.01.02-.02.13-.16.27-.32.4-.48.1-.12.2-.23.29-.35.26-.31.51-.62.78-.94.14-.18.26-.34.4-.51.01-.02.03-.04.04-.06s.03-.04.05-.05c.19-.24.38-.49.55-.73.1-.13.19-.26.29-.39.22-.28.42-.56.62-.85.36-.5.71-1.02,1.05-1.53.25-.38.5-.76.74-1.14.08-.13.16-.26.24-.38.28-.46.55-.93.82-1.39.03-.06.07-.12.11-.18.3-.53.59-1.07.87-1.61t.01-.02h.01s58.98-28.51,58.98-28.51l-54.06-20.41c-.97-4.43-2.33-8.5-4.07-12.21-.23-.52-.48-1.03-.75-1.53-1.53-3.03-3.34-5.8-5.42-8.32-.17-.2-.33-.4-.52-.6-.37-.46-.77-.92-1.18-1.37-.09-.11-.18-.21-.27-.31-.19-.22-.38-.43-.61-.65-.06-.07-.12-.14-.19-.2-.37-.41-.76-.8-1.16-1.19-.24-.26-.5-.52-.77-.77-.51-.51-1.05-1.01-1.59-1.48-.22-.21-.44-.41-.66-.59-.05-.06-.09-.1-.14-.13-.1-.11-.19-.18-.29-.25-.25-.22-.5-.44-.76-.64-.14-.13-.28-.25-.43-.36-.15-.13-.3-.25-.45-.37-.14-.12-.27-.23-.41-.33-.08-.06-.15-.11-.23-.17-.28-.23-.57-.45-.87-.67-.63-.48-1.27-.94-1.92-1.39-.08-.05-.16-.11-.24-.17-.22-.15-.45-.31-.68-.46-.3-.21-.61-.4-.91-.59-.22-.16-.45-.3-.68-.43-.01-.02-.02-.03-.03-.02-.28-.19-.56-.36-.85-.53-.04-.03-.09-.06-.14-.08-.48-.29-.96-.58-1.45-.84-.06-.05-.12-.08-.18-.11-.39-.22-.79-.44-1.19-.64-.58-.32-1.16-.62-1.75-.9-1.19-.6-2.4-1.16-3.64-1.68-.63-.28-1.26-.54-1.9-.77-.41-.18-.82-.34-1.24-.49-.05-.02-.1-.04-.16-.06-.49-.18-.98-.37-1.48-.53-.1-.03-.2-.07-.3-.1-.27-.09-.54-.19-.81-.27-.23-.09-.47-.16-.7-.23-.35-.11-.7-.22-1.06-.33-.5-.15-1-.3-1.5-.44-2.51-.73-5.05-1.38-7.63-1.96-.78-.18-1.57-.36-2.36-.51-1.13-.24-2.26-.47-3.41-.67-1.43-.26-2.88-.5-4.33-.72-.12-.02-.23-.03-.35-.05-.5-.08-1.01-.15-1.51-.21-.78-.11-1.57-.21-2.36-.31-.78-.09-1.57-.18-2.36-.26-.75-.09-1.52-.16-2.28-.22-.14-.01-.28-.03-.42-.04-1.43-.12-2.87-.22-4.33-.3-1.1-.07-2.21-.12-3.33-.16-2.05-.08-4.13-.12-6.22-.12h-22.42s-.01,0-.01-.01C41.66,48.72,21.77,41.27,0,38.72V15.91C0,5.3,5.3,0,15.92,0h62.88c27.86,0,52.8,4.17,74.82,12.53,13.16,4.99,24.63,11.81,34.41,20.45,3.67,3.22,7.1,6.71,10.29,10.45,1.04,1.21,2.04,2.45,3.02,3.71,1.47,1.87,2.87,3.8,4.22,5.79,1.66,2.46,3.22,5.02,4.65,7.69,9.51,17.55,14.26,39.79,14.26,66.73Z"/>
      <path class="cls-1" d="M218.93,128.83l-58.98,28.5c.3-.57.59-1.14.86-1.72.26-.52.5-1.04.73-1.57l.09-.21c.26-.6.52-1.21.76-1.82.18-.46.36-.93.54-1.41.28-.78.55-1.56.8-2.36.41-1.29.78-2.6,1.1-3.95.11-.44.21-.87.31-1.32.1-.44.19-.89.28-1.34s.18-.9.25-1.36c.08-.41.15-.84.21-1.26.13-.79.24-1.6.34-2.42.04-.33.08-.66.11-.99.1-.89.18-1.78.24-2.69.03-.46.06-.91.08-1.37.03-.45.05-.91.06-1.38.03-.93.05-1.87.05-2.81,0-.63-.01-1.26-.02-1.88,0-.46-.01-.91-.03-1.36-.01-.53-.03-1.06-.06-1.59-.04-1.04-.11-2.08-.19-3.1-.02-.27-.04-.54-.07-.8-.03-.43-.07-.85-.12-1.27-.05-.59-.11-1.17-.19-1.75,0-.06-.01-.12-.02-.19-.3-2.42-.69-4.75-1.19-6.99l54.06,20.41Z"/>
      <path class="cls-1" d="M166.74,125.47c.01.62.02,1.25.02,1.88,0,.94-.02,1.88-.05,2.81-.01.46-.03.92-.06,1.38-.02.46-.05.91-.08,1.37-.06.91-.14,1.8-.24,2.69-.03.33-.07.66-.11.99-.1.82-.21,1.63-.34,2.42-.06.42-.13.84-.21,1.26-.08.46-.16.91-.25,1.36s-.18.89-.28,1.34c-.1.44-.2.88-.31,1.32-.32,1.35-.69,2.66-1.1,3.95-.13.4-.26.8-.4,1.19-.13.39-.26.78-.4,1.17-.18.48-.36.95-.54,1.41-.24.61-.5,1.22-.76,1.82l-.09.21c-.24.53-.48,1.05-.73,1.57-.27.58-.56,1.15-.86,1.72h-.01s-48.59,23.49-48.59,23.49c3.14-12.45,19.68-34.13,21.13-45.04.56-4.23-22.83-33.26-26.29-41.05-1.49-3.34-4.02-4.74-.82-8.78l59.49,22.46c.25,1.14.48,2.31.68,3.5.2,1.14.37,2.31.52,3.5.01.07.02.13.02.19.07.57.14,1.16.19,1.75.05.42.09.84.12,1.27.03.27.05.53.07.8.08,1.02.15,2.06.19,3.1.03.53.05,1.06.06,1.59.02.45.03.9.03,1.36Z"/>
      <path class="cls-1" d="M166.74,125.47c0-.46-.01-.91-.03-1.36.02.45.03.9.03,1.36Z"/>
      <path class="cls-1" d="M166.71,124.11c-.01-.53-.03-1.06-.06-1.59.03.53.05,1.06.06,1.59Z"/>
      <path class="cls-1" d="M166.65,131.54c.03-.46.05-.92.06-1.38-.01.47-.03.93-.06,1.38Z"/>
      <path class="cls-1" d="M166.46,119.42c-.02-.27-.04-.53-.07-.8.03.26.05.53.07.8Z"/>
      <path class="cls-1" d="M166.33,135.6c.1-.89.18-1.78.24-2.69-.06.91-.14,1.8-.24,2.69Z"/>
      <path class="cls-1" d="M166.39,118.62c-.03-.43-.07-.85-.12-1.27.05.42.09.84.12,1.27Z"/>
      <path class="cls-1" d="M166.22,136.59c.04-.33.08-.66.11-.99-.03.33-.07.66-.11.99Z"/>
      <path class="cls-1" d="M166.27,117.35c-.05-.59-.12-1.18-.19-1.75.08.58.14,1.16.19,1.75Z"/>
      <path class="cls-1" d="M165.67,140.27c.08-.42.15-.84.21-1.26-.06.42-.13.85-.21,1.26Z"/>
      <path class="cls-1" d="M166.06,115.41c-.15-1.19-.32-2.36-.52-3.5-.2-1.19-.43-2.36-.68-3.5h.01c.5,2.25.89,4.58,1.19,7Z"/>
      <path class="cls-1" d="M165.42,141.63c.09-.45.17-.9.25-1.36-.07.46-.16.91-.25,1.36Z"/>
      <path class="cls-1" d="M165.14,142.97c.1-.45.19-.89.28-1.34-.09.45-.18.9-.28,1.34Z"/>
      <path class="cls-1" d="M164.83,144.29c.11-.44.21-.88.31-1.32-.1.45-.2.88-.31,1.32Z"/>
      <path class="cls-1" d="M164.87,108.42h-.01c-.97-4.43-2.33-8.5-4.06-12.21,1.74,3.71,3.1,7.78,4.07,12.21Z"/>
      <path class="cls-1" d="M164.86,108.41l-59.49-22.46c-3.2,4.04-.67,5.44.82,8.78,3.46,7.79,26.85,36.82,26.29,41.05-1.45,10.91-17.99,32.59-21.13,45.04l48.59-23.48s0,.01-.01.02c-.28.54-.58,1.08-.87,1.61-.04.06-.08.12-.11.18-.27.47-.54.93-.82,1.39-.08.12-.16.25-.24.38-.24.38-.49.76-.74,1.14-.34.51-.69,1.03-1.05,1.53-.2.29-.41.57-.62.85-.1.13-.19.26-.29.39-.19.25-.37.49-.56.73-.01.02-.03.03-.04.05-.4.51-.8,1.01-1.22,1.51-.09.12-.19.23-.29.35-.93,1.11-1.89,2.19-2.89,3.24.01.01,0,.01-.02.02-.24.26-.48.52-.72.76-.67.7-1.37,1.39-2.08,2.07-.06.05-.11.11-.17.16-.83.79-1.68,1.56-2.55,2.3-.1.09-.2.18-.3.26-.57.49-1.14.97-1.73,1.44-.09.08-.19.16-.3.24-.51.41-1.03.81-1.56,1.21-.07.06-.14.11-.22.17-.31.24-.63.47-.95.7-.83.61-1.68,1.2-2.55,1.78l-.63.42c-.07.05-.14.09-.21.14-.64.42-1.28.83-1.94,1.23-.15.09-.31.19-.46.28-1.24.75-2.5,1.47-3.79,2.16-.22.13-.44.24-.67.36-.59.32-1.19.62-1.79.93-.64.31-1.29.63-1.95.93-.1.05-.21.1-.32.15-.15.08-.31.15-.48.22-.12.06-.25.12-.38.18-.05.02-.1.05-.15.07-.55.25-1.11.5-1.68.74-.66.29-1.33.57-2,.84-.16.07-.33.14-.5.2h0c-2.51,1.03-5.06,1.98-7.65,2.86-.86.29-1.73.58-2.6.85-.58.18-1.17.37-1.75.54-.29.09-.58.18-.87.26-.17.05-.33.1-.5.15-1.6.47-3.21.91-4.83,1.32-.9.23-1.8.45-2.7.66s-1.81.41-2.72.61c-4.57.98-9.23,1.76-14,2.34-.95.11-1.91.22-2.87.32l-6.61.6c18.15-17.32,29.13-39.95,29.13-64.72,0-28.48-14.51-54.14-37.76-72.14h-.01c-2.06-1.61-4.18-3.15-6.37-4.62h22.42c2.09,0,4.16.03,6.22.11.68.02,1.37.06,2.05.09.43.02.85.05,1.28.07.66.04,1.32.07,1.99.13.78.05,1.56.11,2.34.17.14.01.28.03.42.04.76.07,1.52.14,2.28.22.79.08,1.58.17,2.36.26.22.03.43.06.64.09.58.07,1.15.14,1.72.22.51.07,1.01.14,1.51.21.12.02.23.03.35.05.48.08.95.15,1.42.23.71.11,1.42.23,2.12.36.27.04.53.08.79.13,1.15.2,2.28.43,3.41.67.34.07.69.14,1.03.22.45.09.89.19,1.33.29s.88.21,1.32.31c1.64.38,3.26.8,4.85,1.25.48.13.98.27,1.46.4.5.14,1,.29,1.5.44.59.18,1.18.36,1.76.56.27.08.54.18.81.27.6.2,1.19.41,1.78.63.06.02.11.04.16.06.42.16.82.32,1.24.49.64.23,1.27.49,1.9.77.09.04.19.08.28.13.65.27,1.3.56,1.94.87.48.22.95.44,1.42.68.59.28,1.17.58,1.75.9.4.22.8.43,1.19.64.06.03.12.06.18.11.37.21.73.42,1.09.64.12.06.24.13.36.2.05.02.1.05.14.08.29.17.57.34.85.53.01-.01.02,0,.03.02.16.1.31.2.45.3.08.04.15.09.23.13.3.19.61.38.91.59.31.2.62.41.92.63.65.45,1.29.91,1.92,1.39l.54.42c.11.08.22.17.33.25.22.16.43.33.64.5.15.12.3.24.45.37.14.12.28.24.43.36.26.2.51.42.76.64.1.07.19.16.29.25.05.03.09.07.14.13.22.19.44.39.66.59.27.24.54.49.8.74.26.24.53.49.79.74.27.25.53.51.77.77.39.39.78.78,1.16,1.19.07.06.13.13.19.2.3.31.6.64.88.96.41.45.81.91,1.18,1.37.17.2.34.41.51.61,2.08,2.52,3.88,5.29,5.43,8.31.25.5.5,1.02.75,1.53,1.73,3.71,3.09,7.78,4.06,12.2Z"/>
      <path class="cls-1" d="M163.33,149.43c.14-.39.27-.79.4-1.19-.25.8-.52,1.58-.8,2.36.14-.39.27-.78.4-1.17Z"/>
      <path class="cls-1" d="M161.63,153.83c.26-.6.52-1.21.76-1.82-.24.61-.5,1.22-.76,1.82Z"/>
      <path class="cls-1" d="M160.81,155.61c.25-.52.49-1.04.73-1.57-.23.53-.47,1.05-.73,1.57Z"/>
      <path class="cls-1" d="M159.95,157.33c.3-.57.59-1.14.86-1.72-.27.58-.56,1.15-.86,1.72Z"/>
      <path class="cls-1" d="M160.8,96.21c-.25-.51-.5-1.03-.75-1.53.27.5.52,1.01.75,1.53Z"/>
      <path class="cls-1" d="M159.06,158.97c.29-.53.59-1.07.87-1.61-.28.54-.57,1.08-.87,1.61Z"/>
      <path class="cls-1" d="M158.13,160.54c.28-.46.55-.92.82-1.39-.27.46-.54.93-.82,1.39Z"/>
      <path class="cls-1" d="M157.15,162.06c.25-.38.5-.76.74-1.14-.24.38-.49.76-.74,1.14Z"/>
      <path class="cls-1" d="M160.05,94.68c-1.55-3.02-3.35-5.79-5.43-8.31-.17-.2-.34-.41-.51-.61.19.2.35.4.52.6,2.08,2.52,3.89,5.29,5.42,8.32Z"/>
      <path class="cls-1" d="M150.7,82.04c.4.39.79.78,1.16,1.19-.38-.41-.77-.8-1.16-1.19Z"/>
      <path class="cls-1" d="M149.45,171.49c.24-.24.48-.5.72-.76-.23.25-.47.51-.72.76Z"/>
      <path class="cls-1" d="M149.93,81.27c-.26-.25-.53-.5-.79-.74-.26-.25-.53-.5-.8-.74.54.47,1.08.97,1.59,1.48Z"/>
      <path class="cls-1" d="M148.34,79.79c-.22-.2-.44-.4-.66-.59.22.18.44.38.66.59Z"/>
      <path class="cls-1" d="M146.49,78.18c-.15-.12-.29-.24-.43-.36.15.11.29.23.43.36Z"/>
      <path class="cls-1" d="M144.97,76.95c-.11-.08-.22-.17-.33-.25l-.54-.42c.3.22.59.44.87.67Z"/>
      <path class="cls-1" d="M139.67,73.24c.23.13.46.27.68.43-.08-.04-.15-.09-.23-.13-.14-.1-.29-.2-.45-.3Z"/>
      <path class="cls-1" d="M138.65,72.61c-.12-.07-.24-.14-.36-.2-.36-.22-.72-.43-1.09-.64.49.26.97.55,1.45.84Z"/>
      <path class="cls-1" d="M137.02,71.66c-.39-.21-.79-.42-1.19-.64.4.2.8.42,1.19.64Z"/>
      <path class="cls-1" d="M134.08,70.12c-.47-.24-.94-.46-1.42-.68-.64-.31-1.29-.6-1.94-.87-.09-.05-.19-.09-.28-.13,1.24.52,2.45,1.08,3.64,1.68Z"/>
      <path class="cls-1" d="M128.54,67.67c-.42-.17-.82-.33-1.24-.49.42.15.83.31,1.24.49Z"/>
      <path class="cls-1" d="M125.28,188.42c.11-.05.22-.1.32-.15-.39.19-.78.37-1.18.55.13-.06.26-.12.38-.18.17-.07.33-.14.48-.22Z"/>
      <path class="cls-1" d="M121.29,65.22c-.48-.13-.98-.27-1.46-.4-1.59-.45-3.21-.87-4.85-1.25-.44-.1-.88-.21-1.32-.31,2.58.58,5.12,1.23,7.63,1.96Z"/>
      <path class="cls-1" d="M120.59,190.47c-.16.07-.33.14-.5.21h0c.17-.07.34-.14.5-.21Z"/>
      <path class="cls-1" d="M113.66,63.26c-.44-.1-.88-.2-1.33-.29-.34-.08-.69-.15-1.03-.22.79.15,1.58.33,2.36.51Z"/>
      <path class="cls-1" d="M107.22,195.18c.29-.08.58-.17.87-.26-.45.14-.91.28-1.37.41.17-.05.33-.1.5-.15Z"/>
      <path class="cls-1" d="M107.89,62.08c-.26-.05-.52-.09-.79-.13-.7-.13-1.41-.25-2.12-.36-.47-.08-.94-.15-1.42-.23,1.45.22,2.9.46,4.33.72Z"/>
      <path class="cls-1" d="M103.21,61.31c-.5-.07-1-.14-1.51-.21.5.06,1.01.13,1.51.21Z"/>
      <path class="cls-1" d="M101.7,61.1c-.57-.08-1.14-.15-1.72-.22-.21-.03-.42-.06-.64-.09.79.1,1.58.2,2.36.31Z"/>
      <path class="cls-1" d="M102.12,136.46c0,24.77-10.98,47.4-29.13,64.72l-.73.07-14.54,1.32V59.7h.26c2.19,1.47,4.31,3.01,6.37,4.61h.01c23.25,18.01,37.76,43.67,37.76,72.15Z"/>
      <path class="cls-1" d="M94.28,60.27c-.78-.06-1.56-.12-2.34-.17-.67-.06-1.33-.09-1.99-.13,1.46.08,2.9.18,4.33.3Z"/>
      <path class="cls-1" d="M89.95,59.97c-.43-.02-.85-.05-1.28-.07-.68-.03-1.37-.07-2.05-.09,1.12.04,2.23.09,3.33.16Z"/>
      <path class="cls-1" d="M80.4,59.69c2.09,0,4.17.04,6.22.12-2.06-.08-4.13-.11-6.22-.11h-22.42s22.42-.01,22.42-.01Z"/>
      <path class="cls-1" d="M72.99,201.18l-.06.06h0c-2.69,2.59-5.56,5.04-8.56,7.37h-.01c-17.37,13.5-39.66,22.71-64.35,25.59V38.72c21.77,2.55,41.66,10,57.97,20.96,0,.01.01.01.01.01h-.26s-.01.01-.01.01v142.88h.01l14.54-1.33.73-.07Z"/>
      <polygon class="cls-1" points="72.26 201.25 57.72 202.58 57.71 202.58 57.71 59.7 57.72 59.7 57.72 202.57 72.26 201.25"/>
      <path class="cls-1" d="M57.98,59.69h0s-.26.01-.26.01h0s.26-.01.26-.01Z"/>
    </g>
  </g>
</svg>